<mxfile host="app.diagrams.net" agent="Mozilla/5.0 (Macintosh; Intel Mac OS X 10.15; rv:137.0) Gecko/20100101 Firefox/137.0" version="26.0.11">
  <diagram name="Page-1" id="Gu_0w_70UD9fGkGpfjfi">
    <mxGraphModel dx="1220" dy="703" grid="1" gridSize="10" guides="1" tooltips="1" connect="1" arrows="1" fold="1" page="1" pageScale="1" pageWidth="850" pageHeight="1100" math="0" shadow="0">
      <root>
        <mxCell id="0" />
        <mxCell id="1" parent="0" />
        <mxCell id="tuLNDt9iflJFVXFXkCV7-7" value="prescaler" style="text;html=1;align=center;verticalAlign=middle;resizable=0;points=[];autosize=1;strokeColor=none;fillColor=none;" vertex="1" parent="1">
          <mxGeometry x="100" y="200" width="70" height="30" as="geometry" />
        </mxCell>
        <mxCell id="tuLNDt9iflJFVXFXkCV7-15" value="" style="rounded=0;whiteSpace=wrap;html=1;" vertex="1" parent="1">
          <mxGeometry x="380" y="259.05" width="40" height="80" as="geometry" />
        </mxCell>
        <mxCell id="tuLNDt9iflJFVXFXkCV7-16" value="" style="triangle;whiteSpace=wrap;html=1;rotation=90;" vertex="1" parent="1">
          <mxGeometry x="395" y="246.55" width="10" height="35" as="geometry" />
        </mxCell>
        <mxCell id="tuLNDt9iflJFVXFXkCV7-19" value="+" style="ellipse;whiteSpace=wrap;html=1;aspect=fixed;" vertex="1" parent="1">
          <mxGeometry x="300" y="140" width="40" height="40" as="geometry" />
        </mxCell>
        <mxCell id="tuLNDt9iflJFVXFXkCV7-21" value="" style="endArrow=none;html=1;rounded=0;exitX=1;exitY=0.5;exitDx=0;exitDy=0;" edge="1" parent="1" source="tuLNDt9iflJFVXFXkCV7-15">
          <mxGeometry width="50" height="50" relative="1" as="geometry">
            <mxPoint x="420" y="469.05" as="sourcePoint" />
            <mxPoint x="460" y="299.05" as="targetPoint" />
          </mxGeometry>
        </mxCell>
        <mxCell id="tuLNDt9iflJFVXFXkCV7-22" value="" style="endArrow=none;html=1;rounded=0;" edge="1" parent="1">
          <mxGeometry width="50" height="50" relative="1" as="geometry">
            <mxPoint x="460" y="299.05" as="sourcePoint" />
            <mxPoint x="460" y="160" as="targetPoint" />
          </mxGeometry>
        </mxCell>
        <mxCell id="tuLNDt9iflJFVXFXkCV7-29" value="" style="shape=trapezoid;perimeter=trapezoidPerimeter;whiteSpace=wrap;html=1;fixedSize=1;rotation=90;" vertex="1" parent="1">
          <mxGeometry x="280" y="279.05" width="80" height="40" as="geometry" />
        </mxCell>
        <mxCell id="tuLNDt9iflJFVXFXkCV7-37" style="edgeStyle=orthogonalEdgeStyle;rounded=0;orthogonalLoop=1;jettySize=auto;html=1;exitX=0.5;exitY=1;exitDx=0;exitDy=0;entryX=0;entryY=0.5;entryDx=0;entryDy=0;" edge="1" parent="1" source="tuLNDt9iflJFVXFXkCV7-31" target="tuLNDt9iflJFVXFXkCV7-29">
          <mxGeometry relative="1" as="geometry" />
        </mxCell>
        <mxCell id="tuLNDt9iflJFVXFXkCV7-31" value="&amp;gt;" style="ellipse;whiteSpace=wrap;html=1;aspect=fixed;" vertex="1" parent="1">
          <mxGeometry x="300" y="206.55" width="40" height="40" as="geometry" />
        </mxCell>
        <mxCell id="tuLNDt9iflJFVXFXkCV7-33" value="" style="endArrow=classic;html=1;rounded=0;entryX=0.5;entryY=0;entryDx=0;entryDy=0;" edge="1" parent="1" target="tuLNDt9iflJFVXFXkCV7-19">
          <mxGeometry width="50" height="50" relative="1" as="geometry">
            <mxPoint x="320" y="100" as="sourcePoint" />
            <mxPoint x="380" y="180" as="targetPoint" />
          </mxGeometry>
        </mxCell>
        <mxCell id="tuLNDt9iflJFVXFXkCV7-34" value="&lt;div&gt;1&lt;/div&gt;" style="text;html=1;align=center;verticalAlign=middle;resizable=0;points=[];autosize=1;strokeColor=none;fillColor=none;" vertex="1" parent="1">
          <mxGeometry x="320" y="90" width="30" height="30" as="geometry" />
        </mxCell>
        <mxCell id="tuLNDt9iflJFVXFXkCV7-35" value="" style="endArrow=classic;html=1;rounded=0;entryX=0.5;entryY=0;entryDx=0;entryDy=0;exitX=0.5;exitY=1;exitDx=0;exitDy=0;" edge="1" parent="1" source="tuLNDt9iflJFVXFXkCV7-19" target="tuLNDt9iflJFVXFXkCV7-31">
          <mxGeometry width="50" height="50" relative="1" as="geometry">
            <mxPoint x="270" y="210" as="sourcePoint" />
            <mxPoint x="320" y="160" as="targetPoint" />
          </mxGeometry>
        </mxCell>
        <mxCell id="tuLNDt9iflJFVXFXkCV7-36" value="" style="endArrow=classic;html=1;rounded=0;entryX=0;entryY=0.5;entryDx=0;entryDy=0;" edge="1" parent="1" target="tuLNDt9iflJFVXFXkCV7-31">
          <mxGeometry width="50" height="50" relative="1" as="geometry">
            <mxPoint x="130" y="227" as="sourcePoint" />
            <mxPoint x="250" y="360" as="targetPoint" />
          </mxGeometry>
        </mxCell>
        <mxCell id="tuLNDt9iflJFVXFXkCV7-38" value="0" style="text;html=1;align=center;verticalAlign=middle;whiteSpace=wrap;rounded=0;" vertex="1" parent="1">
          <mxGeometry x="300" y="278" width="20" height="20" as="geometry" />
        </mxCell>
        <mxCell id="tuLNDt9iflJFVXFXkCV7-39" value="1" style="text;html=1;align=center;verticalAlign=middle;whiteSpace=wrap;rounded=0;" vertex="1" parent="1">
          <mxGeometry x="300" y="299.05" width="20" height="20" as="geometry" />
        </mxCell>
        <mxCell id="tuLNDt9iflJFVXFXkCV7-41" value="" style="endArrow=classic;html=1;rounded=0;exitX=0.5;exitY=0;exitDx=0;exitDy=0;entryX=-0.03;entryY=0.501;entryDx=0;entryDy=0;entryPerimeter=0;" edge="1" parent="1" source="tuLNDt9iflJFVXFXkCV7-29" target="tuLNDt9iflJFVXFXkCV7-15">
          <mxGeometry width="50" height="50" relative="1" as="geometry">
            <mxPoint x="290" y="330" as="sourcePoint" />
            <mxPoint x="340" y="280" as="targetPoint" />
          </mxGeometry>
        </mxCell>
        <mxCell id="tuLNDt9iflJFVXFXkCV7-42" value="" style="endArrow=classic;html=1;rounded=0;entryX=0;entryY=0.5;entryDx=0;entryDy=0;" edge="1" parent="1" target="tuLNDt9iflJFVXFXkCV7-39">
          <mxGeometry width="50" height="50" relative="1" as="geometry">
            <mxPoint x="250" y="310" as="sourcePoint" />
            <mxPoint x="380" y="290" as="targetPoint" />
          </mxGeometry>
        </mxCell>
        <mxCell id="tuLNDt9iflJFVXFXkCV7-45" value="0" style="text;html=1;align=center;verticalAlign=middle;whiteSpace=wrap;rounded=0;" vertex="1" parent="1">
          <mxGeometry x="230" y="298" width="15" height="30" as="geometry" />
        </mxCell>
        <mxCell id="tuLNDt9iflJFVXFXkCV7-46" value="" style="endArrow=none;html=1;rounded=0;" edge="1" parent="1">
          <mxGeometry width="50" height="50" relative="1" as="geometry">
            <mxPoint x="260" y="190" as="sourcePoint" />
            <mxPoint x="320" y="190" as="targetPoint" />
          </mxGeometry>
        </mxCell>
        <mxCell id="tuLNDt9iflJFVXFXkCV7-47" value="" style="endArrow=none;dashed=1;html=1;dashPattern=1 3;strokeWidth=2;rounded=0;" edge="1" parent="1">
          <mxGeometry width="50" height="50" relative="1" as="geometry">
            <mxPoint x="260" y="290" as="sourcePoint" />
            <mxPoint x="260" y="190" as="targetPoint" />
          </mxGeometry>
        </mxCell>
        <mxCell id="tuLNDt9iflJFVXFXkCV7-49" value="" style="endArrow=classic;html=1;rounded=0;entryX=0.383;entryY=1.004;entryDx=0;entryDy=0;entryPerimeter=0;" edge="1" parent="1" target="tuLNDt9iflJFVXFXkCV7-29">
          <mxGeometry width="50" height="50" relative="1" as="geometry">
            <mxPoint x="260" y="290" as="sourcePoint" />
            <mxPoint x="300" y="220" as="targetPoint" />
          </mxGeometry>
        </mxCell>
        <mxCell id="tuLNDt9iflJFVXFXkCV7-52" value="" style="endArrow=none;dashed=1;html=1;dashPattern=1 3;strokeWidth=2;rounded=0;" edge="1" parent="1">
          <mxGeometry width="50" height="50" relative="1" as="geometry">
            <mxPoint x="320" y="250" as="sourcePoint" />
            <mxPoint x="500" y="250" as="targetPoint" />
          </mxGeometry>
        </mxCell>
        <mxCell id="tuLNDt9iflJFVXFXkCV7-54" value="prescalerWrap" style="text;html=1;align=center;verticalAlign=middle;whiteSpace=wrap;rounded=0;" vertex="1" parent="1">
          <mxGeometry x="490" y="216.55" width="60" height="30" as="geometry" />
        </mxCell>
        <mxCell id="tuLNDt9iflJFVXFXkCV7-55" value="" style="endArrow=classic;html=1;rounded=0;entryX=1;entryY=0.5;entryDx=0;entryDy=0;" edge="1" parent="1" target="tuLNDt9iflJFVXFXkCV7-19">
          <mxGeometry width="50" height="50" relative="1" as="geometry">
            <mxPoint x="460" y="160" as="sourcePoint" />
            <mxPoint x="420" y="130" as="targetPoint" />
          </mxGeometry>
        </mxCell>
        <mxCell id="tuLNDt9iflJFVXFXkCV7-56" value="prescalerCount" style="text;html=1;align=center;verticalAlign=middle;whiteSpace=wrap;rounded=0;" vertex="1" parent="1">
          <mxGeometry x="370" y="130" width="60" height="30" as="geometry" />
        </mxCell>
      </root>
    </mxGraphModel>
  </diagram>
</mxfile>
